<svg id="图层_1" data-name="图层 1" xmlns="http://www.w3.org/2000/svg" viewBox="0 0 16 16"><defs><style>.cls-1{fill:#ff3b6e;}</style></defs><title>第三方B2B</title><g id="询盘监控5.1"><g id="全网监控-询盘监控_询盘池5.1" data-name="全网监控-询盘监控／询盘池5.1"><g id="B2B"><path id="Shape" class="cls-1" d="M8.24,16A8,8,0,0,1,0,8.24,8.11,8.11,0,0,1,8.24,0,8,8,0,0,1,16,8.24,7.9,7.9,0,0,1,8.24,16Zm0-1.14a6.77,6.77,0,0,0,6.64-6.64A6.87,6.87,0,0,0,8.22,1.14,7,7,0,0,0,1.14,8.22a6.87,6.87,0,0,0,7.08,6.64Z" transform="translate(0 0)"/><path id="Shape-2" data-name="Shape" class="cls-1" d="M2.94,10V5.71H4.55a2,2,0,0,1,.79.13,1,1,0,0,1,.47.4A1.06,1.06,0,0,1,6,6.8a1,1,0,0,1-.15.52,1.07,1.07,0,0,1-.45.39A1.12,1.12,0,0,1,6,8.1a1,1,0,0,1,.21.65,1.26,1.26,0,0,1-.13.56,1.09,1.09,0,0,1-.32.4,1.31,1.31,0,0,1-.47.21,2.85,2.85,0,0,1-.69.07H2.94Zm.57-2.49h.93A2.08,2.08,0,0,0,5,7.46a.6.6,0,0,0,.33-.21.61.61,0,0,0,.11-.37.69.69,0,0,0-.1-.38A.52.52,0,0,0,5,6.27a2.45,2.45,0,0,0-.65-.06H3.51Zm0,2H4.58l.39,0a.94.94,0,0,0,.33-.12.63.63,0,0,0,.22-.24.75.75,0,0,0,.09-.36.71.71,0,0,0-.12-.42.65.65,0,0,0-.34-.25A2.11,2.11,0,0,0,4.5,8h-1Zm5.91,0V10H6.57a.93.93,0,0,1,.06-.37A1.94,1.94,0,0,1,7,9.06a5.44,5.44,0,0,1,.69-.65,5.85,5.85,0,0,0,.95-.91,1.09,1.09,0,0,0,.25-.63.71.71,0,0,0-.22-.53.81.81,0,0,0-.59-.22.82.82,0,0,0-.61.23A.86.86,0,0,0,7.22,7l-.54-.06A1.33,1.33,0,0,1,7.09,6a1.43,1.43,0,0,1,1-.32A1.36,1.36,0,0,1,9,6a1.13,1.13,0,0,1,.36.85,1.29,1.29,0,0,1-.1.51A2,2,0,0,1,9,7.91a8.62,8.62,0,0,1-.81.76q-.47.4-.61.54a1.74,1.74,0,0,0-.22.29H9.41Zm.65.51V5.71h1.61a2,2,0,0,1,.79.13,1,1,0,0,1,.47.4,1.06,1.06,0,0,1,.17.57,1,1,0,0,1-.15.52,1.07,1.07,0,0,1-.45.39,1.12,1.12,0,0,1,.6.39,1,1,0,0,1,.21.65,1.26,1.26,0,0,1-.13.56,1.09,1.09,0,0,1-.31.4,1.32,1.32,0,0,1-.47.21,2.86,2.86,0,0,1-.69.07Zm.57-2.49h.93a2.08,2.08,0,0,0,.54-.05.6.6,0,0,0,.33-.21.62.62,0,0,0,.11-.37.69.69,0,0,0-.1-.38.52.52,0,0,0-.29-.22,2.44,2.44,0,0,0-.65-.06h-.86v1.3Zm0,2H11.7l.39,0a.94.94,0,0,0,.33-.12.63.63,0,0,0,.22-.24.75.75,0,0,0,.09-.36.71.71,0,0,0-.12-.42.65.65,0,0,0-.34-.25A2.11,2.11,0,0,0,11.62,8h-1V9.49Z" transform="translate(0 0)"/></g></g></g></svg>