<svg id="图层_1" data-name="图层 1" xmlns="http://www.w3.org/2000/svg" viewBox="0 0 16 13.84"><defs><style>.cls-1{fill:#ffa726;}</style></defs><title>群组</title><g id="询盘监控5.1"><g id="全网监控-询盘监控_询盘池5.1" data-name="全网监控-询盘监控／询盘池5.1"><g id="群组"><path id="Shape" class="cls-1" d="M6,0A4.12,4.12,0,0,0,2,4.17,4.12,4.12,0,0,0,6,8.34a4.12,4.12,0,0,0,4.07-4.17A4.12,4.12,0,0,0,6,0ZM6,7.15a3,3,0,0,1-2.91-3A3,3,0,0,1,6,1.19a3,3,0,0,1,2.91,3A3,3,0,0,1,6,7.15Z" transform="translate(0 0)"/><path id="Shape-2" data-name="Shape" class="cls-1" d="M0,12.66a1.86,1.86,0,0,0,.1.91.7.7,0,0,0,.62.27.68.68,0,0,0,.59-.72,4.54,4.54,0,0,1,.25-1.45,4.87,4.87,0,0,1,.68-1.27A4.7,4.7,0,0,1,8.39,9.2a4.5,4.5,0,0,1,2.05,2.57A4.81,4.81,0,0,1,10.66,13a.72.72,0,0,0,.66.83s.66,0,.65-.83A5.87,5.87,0,0,0,11,9.9,6,6,0,0,0,8.48,7.76a6.47,6.47,0,0,0-5.79.45A6.23,6.23,0,0,0,0,12.66Z" transform="translate(0 0)"/><path id="Shape-3" data-name="Shape" class="cls-1" d="M12,.72S10.74,0,9.93.27a.64.64,0,0,0-.3.7s0,.43,1.07.6a2.75,2.75,0,0,1,1.75,1.59,2.64,2.64,0,0,1-.09,2.13,2.73,2.73,0,0,1-1.09,1.15,1.09,1.09,0,0,0-.62,1.14s0,.55,1.42,1a4.64,4.64,0,0,1,2.58,3.93s-.1.87.68.91c0,0,.71.06.67-.88a6.11,6.11,0,0,0-.81-2.78,6,6,0,0,0-2.7-2.44l-.06,0A4.46,4.46,0,0,0,13,6.76,4,4,0,0,0,14,4.64a3.86,3.86,0,0,0-.75-2.85A4.47,4.47,0,0,0,12,.72Z" transform="translate(0 0)"/></g></g></g></svg>